<svg xmlns="http://www.w3.org/2000/svg" width="40" height="40"><rect x="0" y="0" width="10" height="10" fill="cyan"/><rect x="10" y="0" width="10" height="10" fill="cyan"/><rect x="0" y="10" width="10" height="10" fill="cyan"/><rect x="10" y="10" width="10" height="10" fill="green"/><rect x="20" y="0" width="10" height="10" fill="cyan"/><rect x="30" y="0" width="10" height="10" fill="green"/><rect x="20" y="10" width="10" height="10" fill="cyan"/><rect x="30" y="10" width="10" height="10" fill="green"/><rect x="0" y="20" width="10" height="10" fill="cyan"/><rect x="10" y="20" width="10" height="10" fill="green"/><rect x="0" y="30" width="10" height="10" fill="cyan"/><rect x="10" y="30" width="10" height="10" fill="cyan"/><rect x="20" y="20" width="10" height="10" fill="cyan"/><rect x="30" y="20" width="10" height="10" fill="green"/><rect x="20" y="30" width="10" height="10" fill="cyan"/><rect x="30" y="30" width="10" height="10" fill="green"/></svg>