<svg xmlns="http://www.w3.org/2000/svg" width="160" height="160"><rect x="0" y="0" width="20" height="20" fill="cyan"/><rect x="20" y="0" width="20" height="20" fill="cyan"/><rect x="0" y="20" width="10" height="10" fill="green"/><rect x="10" y="20" width="10" height="10" fill="cyan"/><rect x="0" y="30" width="10" height="10" fill="cyan"/><rect x="10" y="30" width="10" height="10" fill="cyan"/><rect x="20" y="20" width="20" height="20" fill="cyan"/><rect x="40" y="0" width="10" height="10" fill="cyan"/><rect x="50" y="0" width="10" height="10" fill="cyan"/><rect x="40" y="10" width="10" height="10" fill="cyan"/><rect x="50" y="10" width="10" height="10" fill="green"/><rect x="60" y="0" width="10" height="10" fill="cyan"/><rect x="70" y="0" width="10" height="10" fill="green"/><rect x="60" y="10" width="10" height="10" fill="green"/><rect x="70" y="10" width="10" height="10" fill="green"/><rect x="40" y="20" width="10" height="10" fill="green"/><rect x="50" y="20" width="10" height="10" fill="green"/><rect x="40" y="30" width="10" height="10" fill="cyan"/><rect x="50" y="30" width="10" height="10" fill="green"/><rect x="60" y="20" width="20" height="20" fill="cyan"/><rect x="0" y="40" width="20" height="20" fill="cyan"/><rect x="20" y="40" width="20" height="20" fill="cyan"/><rect x="0" y="60" width="20" height="20" fill="cyan"/><rect x="20" y="60" width="10" height="10" fill="cyan"/><rect x="30" y="60" width="10" height="10" fill="green"/><rect x="20" y="70" width="10" height="10" fill="cyan"/><rect x="30" y="70" width="10" height="10" fill="cyan"/><rect x="40" y="40" width="10" height="10" fill="cyan"/><rect x="50" y="40" width="10" height="10" fill="green"/><rect x="40" y="50" width="10" height="10" fill="cyan"/><rect x="50" y="50" width="10" height="10" fill="cyan"/><rect x="60" y="40" width="10" height="10" fill="green"/><rect x="70" y="40" width="10" height="10" fill="cyan"/><rect x="60" y="50" width="10" height="10" fill="green"/><rect x="70" y="50" width="10" height="10" fill="green"/><rect x="40" y="60" width="10" height="10" fill="cyan"/><rect x="50" y="60" width="10" height="10" fill="green"/><rect x="40" y="70" width="10" height="10" fill="green"/><rect x="50" y="70" width="10" height="10" fill="green"/><rect x="60" y="60" width="20" height="20" fill="green"/><rect x="80" y="0" width="40" height="40" fill="cyan"/><rect x="120" y="0" width="40" height="40" fill="green"/><rect x="80" y="40" width="20" height="20" fill="cyan"/><rect x="100" y="40" width="20" height="20" fill="cyan"/><rect x="80" y="60" width="10" height="10" fill="green"/><rect x="90" y="60" width="10" height="10" fill="cyan"/><rect x="80" y="70" width="10" height="10" fill="cyan"/><rect x="90" y="70" width="10" height="10" fill="cyan"/><rect x="100" y="60" width="20" height="20" fill="cyan"/><rect x="120" y="40" width="10" height="10" fill="green"/><rect x="130" y="40" width="10" height="10" fill="green"/><rect x="120" y="50" width="10" height="10" fill="cyan"/><rect x="130" y="50" width="10" height="10" fill="green"/><rect x="140" y="40" width="20" height="20" fill="green"/><rect x="120" y="60" width="20" height="20" fill="green"/><rect x="140" y="60" width="20" height="20" fill="green"/><rect x="0" y="80" width="10" height="10" fill="cyan"/><rect x="10" y="80" width="10" height="10" fill="green"/><rect x="0" y="90" width="10" height="10" fill="cyan"/><rect x="10" y="90" width="10" height="10" fill="cyan"/><rect x="20" y="80" width="20" height="20" fill="green"/><rect x="0" y="100" width="20" height="20" fill="cyan"/><rect x="20" y="100" width="10" height="10" fill="cyan"/><rect x="30" y="100" width="10" height="10" fill="cyan"/><rect x="20" y="110" width="10" height="10" fill="cyan"/><rect x="30" y="110" width="10" height="10" fill="green"/><rect x="40" y="80" width="10" height="10" fill="green"/><rect x="50" y="80" width="10" height="10" fill="green"/><rect x="40" y="90" width="10" height="10" fill="cyan"/><rect x="50" y="90" width="10" height="10" fill="cyan"/><rect x="60" y="80" width="10" height="10" fill="green"/><rect x="70" y="80" width="10" height="10" fill="cyan"/><rect x="60" y="90" width="10" height="10" fill="green"/><rect x="70" y="90" width="10" height="10" fill="green"/><rect x="40" y="100" width="10" height="10" fill="green"/><rect x="50" y="100" width="10" height="10" fill="cyan"/><rect x="40" y="110" width="10" height="10" fill="cyan"/><rect x="50" y="110" width="10" height="10" fill="cyan"/><rect x="60" y="100" width="10" height="10" fill="green"/><rect x="70" y="100" width="10" height="10" fill="green"/><rect x="60" y="110" width="10" height="10" fill="cyan"/><rect x="70" y="110" width="10" height="10" fill="green"/><rect x="0" y="120" width="10" height="10" fill="cyan"/><rect x="10" y="120" width="10" height="10" fill="green"/><rect x="0" y="130" width="10" height="10" fill="cyan"/><rect x="10" y="130" width="10" height="10" fill="cyan"/><rect x="20" y="120" width="20" height="20" fill="green"/><rect x="0" y="140" width="20" height="20" fill="cyan"/><rect x="20" y="140" width="20" height="20" fill="cyan"/><rect x="40" y="120" width="40" height="40" fill="cyan"/><rect x="80" y="80" width="20" height="20" fill="cyan"/><rect x="100" y="80" width="10" height="10" fill="cyan"/><rect x="110" y="80" width="10" height="10" fill="cyan"/><rect x="100" y="90" width="10" height="10" fill="green"/><rect x="110" y="90" width="10" height="10" fill="cyan"/><rect x="80" y="100" width="10" height="10" fill="cyan"/><rect x="90" y="100" width="10" height="10" fill="cyan"/><rect x="80" y="110" width="10" height="10" fill="green"/><rect x="90" y="110" width="10" height="10" fill="cyan"/><rect x="100" y="100" width="10" height="10" fill="cyan"/><rect x="110" y="100" width="10" height="10" fill="cyan"/><rect x="100" y="110" width="10" height="10" fill="cyan"/><rect x="110" y="110" width="10" height="10" fill="green"/><rect x="120" y="80" width="20" height="20" fill="green"/><rect x="140" y="80" width="20" height="20" fill="green"/><rect x="120" y="100" width="10" height="10" fill="green"/><rect x="130" y="100" width="10" height="10" fill="cyan"/><rect x="120" y="110" width="10" height="10" fill="green"/><rect x="130" y="110" width="10" height="10" fill="cyan"/><rect x="140" y="100" width="20" height="20" fill="green"/><rect x="80" y="120" width="10" height="10" fill="cyan"/><rect x="90" y="120" width="10" height="10" fill="green"/><rect x="80" y="130" width="10" height="10" fill="cyan"/><rect x="90" y="130" width="10" height="10" fill="cyan"/><rect x="100" y="120" width="10" height="10" fill="green"/><rect x="110" y="120" width="10" height="10" fill="green"/><rect x="100" y="130" width="10" height="10" fill="cyan"/><rect x="110" y="130" width="10" height="10" fill="cyan"/><rect x="80" y="140" width="20" height="20" fill="cyan"/><rect x="100" y="140" width="20" height="20" fill="cyan"/><rect x="120" y="120" width="20" height="20" fill="cyan"/><rect x="140" y="120" width="20" height="20" fill="green"/><rect x="120" y="140" width="20" height="20" fill="cyan"/><rect x="140" y="140" width="20" height="20" fill="green"/></svg>