<svg xmlns="http://www.w3.org/2000/svg" width="320" height="320"><rect x="0" y="0" width="40" height="40" fill="cyan"/><rect x="40" y="0" width="40" height="40" fill="cyan"/><rect x="0" y="40" width="10" height="10" fill="green"/><rect x="10" y="40" width="10" height="10" fill="cyan"/><rect x="0" y="50" width="10" height="10" fill="green"/><rect x="10" y="50" width="10" height="10" fill="green"/><rect x="20" y="40" width="20" height="20" fill="cyan"/><rect x="0" y="60" width="10" height="10" fill="green"/><rect x="10" y="60" width="10" height="10" fill="cyan"/><rect x="0" y="70" width="10" height="10" fill="cyan"/><rect x="10" y="70" width="10" height="10" fill="cyan"/><rect x="20" y="60" width="20" height="20" fill="cyan"/><rect x="40" y="40" width="40" height="40" fill="cyan"/><rect x="80" y="0" width="20" height="20" fill="cyan"/><rect x="100" y="0" width="20" height="20" fill="cyan"/><rect x="80" y="20" width="20" height="20" fill="cyan"/><rect x="100" y="20" width="10" height="10" fill="cyan"/><rect x="110" y="20" width="10" height="10" fill="green"/><rect x="100" y="30" width="10" height="10" fill="green"/><rect x="110" y="30" width="10" height="10" fill="green"/><rect x="120" y="0" width="10" height="10" fill="cyan"/><rect x="130" y="0" width="10" height="10" fill="cyan"/><rect x="120" y="10" width="10" height="10" fill="cyan"/><rect x="130" y="10" width="10" height="10" fill="green"/><rect x="140" y="0" width="10" height="10" fill="cyan"/><rect x="150" y="0" width="10" height="10" fill="green"/><rect x="140" y="10" width="10" height="10" fill="green"/><rect x="150" y="10" width="10" height="10" fill="green"/><rect x="120" y="20" width="20" height="20" fill="green"/><rect x="140" y="20" width="20" height="20" fill="green"/><rect x="80" y="40" width="20" height="20" fill="green"/><rect x="100" y="40" width="20" height="20" fill="green"/><rect x="80" y="60" width="10" height="10" fill="cyan"/><rect x="90" y="60" width="10" height="10" fill="cyan"/><rect x="80" y="70" width="10" height="10" fill="cyan"/><rect x="90" y="70" width="10" height="10" fill="green"/><rect x="100" y="60" width="10" height="10" fill="cyan"/><rect x="110" y="60" width="10" height="10" fill="green"/><rect x="100" y="70" width="10" height="10" fill="green"/><rect x="110" y="70" width="10" height="10" fill="green"/><rect x="120" y="40" width="20" height="20" fill="cyan"/><rect x="140" y="40" width="20" height="20" fill="cyan"/><rect x="120" y="60" width="10" height="10" fill="green"/><rect x="130" y="60" width="10" height="10" fill="cyan"/><rect x="120" y="70" width="10" height="10" fill="cyan"/><rect x="130" y="70" width="10" height="10" fill="cyan"/><rect x="140" y="60" width="20" height="20" fill="cyan"/><rect x="0" y="80" width="40" height="40" fill="cyan"/><rect x="40" y="80" width="20" height="20" fill="cyan"/><rect x="60" y="80" width="20" height="20" fill="cyan"/><rect x="40" y="100" width="20" height="20" fill="cyan"/><rect x="60" y="100" width="10" height="10" fill="cyan"/><rect x="70" y="100" width="10" height="10" fill="cyan"/><rect x="60" y="110" width="10" height="10" fill="cyan"/><rect x="70" y="110" width="10" height="10" fill="green"/><rect x="0" y="120" width="40" height="40" fill="cyan"/><rect x="40" y="120" width="20" height="20" fill="cyan"/><rect x="60" y="120" width="20" height="20" fill="green"/><rect x="40" y="140" width="20" height="20" fill="cyan"/><rect x="60" y="140" width="20" height="20" fill="cyan"/><rect x="80" y="80" width="20" height="20" fill="cyan"/><rect x="100" y="80" width="20" height="20" fill="green"/><rect x="80" y="100" width="20" height="20" fill="cyan"/><rect x="100" y="100" width="10" height="10" fill="cyan"/><rect x="110" y="100" width="10" height="10" fill="cyan"/><rect x="100" y="110" width="10" height="10" fill="cyan"/><rect x="110" y="110" width="10" height="10" fill="green"/><rect x="120" y="80" width="10" height="10" fill="green"/><rect x="130" y="80" width="10" height="10" fill="cyan"/><rect x="120" y="90" width="10" height="10" fill="green"/><rect x="130" y="90" width="10" height="10" fill="green"/><rect x="140" y="80" width="10" height="10" fill="cyan"/><rect x="150" y="80" width="10" height="10" fill="cyan"/><rect x="140" y="90" width="10" height="10" fill="cyan"/><rect x="150" y="90" width="10" height="10" fill="green"/><rect x="120" y="100" width="10" height="10" fill="green"/><rect x="130" y="100" width="10" height="10" fill="green"/><rect x="120" y="110" width="10" height="10" fill="cyan"/><rect x="130" y="110" width="10" height="10" fill="green"/><rect x="140" y="100" width="10" height="10" fill="green"/><rect x="150" y="100" width="10" height="10" fill="green"/><rect x="140" y="110" width="10" height="10" fill="green"/><rect x="150" y="110" width="10" height="10" fill="cyan"/><rect x="80" y="120" width="20" height="20" fill="cyan"/><rect x="100" y="120" width="10" height="10" fill="cyan"/><rect x="110" y="120" width="10" height="10" fill="green"/><rect x="100" y="130" width="10" height="10" fill="green"/><rect x="110" y="130" width="10" height="10" fill="green"/><rect x="80" y="140" width="20" height="20" fill="green"/><rect x="100" y="140" width="20" height="20" fill="green"/><rect x="120" y="120" width="40" height="40" fill="green"/><rect x="160" y="0" width="20" height="20" fill="cyan"/><rect x="180" y="0" width="20" height="20" fill="cyan"/><rect x="160" y="20" width="10" height="10" fill="green"/><rect x="170" y="20" width="10" height="10" fill="cyan"/><rect x="160" y="30" width="10" height="10" fill="green"/><rect x="170" y="30" width="10" height="10" fill="cyan"/><rect x="180" y="20" width="20" height="20" fill="cyan"/><rect x="200" y="0" width="20" height="20" fill="cyan"/><rect x="220" y="0" width="20" height="20" fill="cyan"/><rect x="200" y="20" width="20" height="20" fill="cyan"/><rect x="220" y="20" width="10" height="10" fill="cyan"/><rect x="230" y="20" width="10" height="10" fill="green"/><rect x="220" y="30" width="10" height="10" fill="cyan"/><rect x="230" y="30" width="10" height="10" fill="cyan"/><rect x="160" y="40" width="20" height="20" fill="cyan"/><rect x="180" y="40" width="20" height="20" fill="cyan"/><rect x="160" y="60" width="20" height="20" fill="cyan"/><rect x="180" y="60" width="10" height="10" fill="cyan"/><rect x="190" y="60" width="10" height="10" fill="cyan"/><rect x="180" y="70" width="10" height="10" fill="green"/><rect x="190" y="70" width="10" height="10" fill="cyan"/><rect x="200" y="40" width="20" height="20" fill="cyan"/><rect x="220" y="40" width="10" height="10" fill="cyan"/><rect x="230" y="40" width="10" height="10" fill="cyan"/><rect x="220" y="50" width="10" height="10" fill="cyan"/><rect x="230" y="50" width="10" height="10" fill="green"/><rect x="200" y="60" width="20" height="20" fill="cyan"/><rect x="220" y="60" width="20" height="20" fill="cyan"/><rect x="240" y="0" width="80" height="80" fill="green"/><rect x="160" y="80" width="40" height="40" fill="cyan"/><rect x="200" y="80" width="40" height="40" fill="cyan"/><rect x="160" y="120" width="10" height="10" fill="cyan"/><rect x="170" y="120" width="10" height="10" fill="green"/><rect x="160" y="130" width="10" height="10" fill="green"/><rect x="170" y="130" width="10" height="10" fill="green"/><rect x="180" y="120" width="20" height="20" fill="cyan"/><rect x="160" y="140" width="10" height="10" fill="green"/><rect x="170" y="140" width="10" height="10" fill="cyan"/><rect x="160" y="150" width="10" height="10" fill="cyan"/><rect x="170" y="150" width="10" height="10" fill="cyan"/><rect x="180" y="140" width="20" height="20" fill="cyan"/><rect x="200" y="120" width="40" height="40" fill="cyan"/><rect x="240" y="80" width="10" height="10" fill="cyan"/><rect x="250" y="80" width="10" height="10" fill="green"/><rect x="240" y="90" width="10" height="10" fill="green"/><rect x="250" y="90" width="10" height="10" fill="green"/><rect x="260" y="80" width="20" height="20" fill="green"/><rect x="240" y="100" width="10" height="10" fill="cyan"/><rect x="250" y="100" width="10" height="10" fill="cyan"/><rect x="240" y="110" width="10" height="10" fill="green"/><rect x="250" y="110" width="10" height="10" fill="green"/><rect x="260" y="100" width="20" height="20" fill="green"/><rect x="280" y="80" width="40" height="40" fill="green"/><rect x="240" y="120" width="10" height="10" fill="green"/><rect x="250" y="120" width="10" height="10" fill="green"/><rect x="240" y="130" width="10" height="10" fill="cyan"/><rect x="250" y="130" width="10" height="10" fill="green"/><rect x="260" y="120" width="20" height="20" fill="green"/><rect x="240" y="140" width="10" height="10" fill="green"/><rect x="250" y="140" width="10" height="10" fill="green"/><rect x="240" y="150" width="10" height="10" fill="cyan"/><rect x="250" y="150" width="10" height="10" fill="green"/><rect x="260" y="140" width="20" height="20" fill="green"/><rect x="280" y="120" width="40" height="40" fill="green"/><rect x="0" y="160" width="20" height="20" fill="cyan"/><rect x="20" y="160" width="20" height="20" fill="green"/><rect x="0" y="180" width="20" height="20" fill="cyan"/><rect x="20" y="180" width="10" height="10" fill="green"/><rect x="30" y="180" width="10" height="10" fill="cyan"/><rect x="20" y="190" width="10" height="10" fill="cyan"/><rect x="30" y="190" width="10" height="10" fill="cyan"/><rect x="40" y="160" width="10" height="10" fill="cyan"/><rect x="50" y="160" width="10" height="10" fill="green"/><rect x="40" y="170" width="10" height="10" fill="green"/><rect x="50" y="170" width="10" height="10" fill="green"/><rect x="60" y="160" width="20" height="20" fill="green"/><rect x="40" y="180" width="20" height="20" fill="green"/><rect x="60" y="180" width="10" height="10" fill="green"/><rect x="70" y="180" width="10" height="10" fill="cyan"/><rect x="60" y="190" width="10" height="10" fill="green"/><rect x="70" y="190" width="10" height="10" fill="cyan"/><rect x="0" y="200" width="20" height="20" fill="cyan"/><rect x="20" y="200" width="20" height="20" fill="cyan"/><rect x="0" y="220" width="20" height="20" fill="cyan"/><rect x="20" y="220" width="10" height="10" fill="cyan"/><rect x="30" y="220" width="10" height="10" fill="cyan"/><rect x="20" y="230" width="10" height="10" fill="green"/><rect x="30" y="230" width="10" height="10" fill="cyan"/><rect x="40" y="200" width="20" height="20" fill="cyan"/><rect x="60" y="200" width="10" height="10" fill="cyan"/><rect x="70" y="200" width="10" height="10" fill="green"/><rect x="60" y="210" width="10" height="10" fill="cyan"/><rect x="70" y="210" width="10" height="10" fill="cyan"/><rect x="40" y="220" width="10" height="10" fill="cyan"/><rect x="50" y="220" width="10" height="10" fill="cyan"/><rect x="40" y="230" width="10" height="10" fill="cyan"/><rect x="50" y="230" width="10" height="10" fill="green"/><rect x="60" y="220" width="20" height="20" fill="green"/><rect x="80" y="160" width="10" height="10" fill="green"/><rect x="90" y="160" width="10" height="10" fill="green"/><rect x="80" y="170" width="10" height="10" fill="cyan"/><rect x="90" y="170" width="10" height="10" fill="green"/><rect x="100" y="160" width="10" height="10" fill="green"/><rect x="110" y="160" width="10" height="10" fill="green"/><rect x="100" y="170" width="10" height="10" fill="green"/><rect x="110" y="170" width="10" height="10" fill="cyan"/><rect x="80" y="180" width="10" height="10" fill="green"/><rect x="90" y="180" width="10" height="10" fill="cyan"/><rect x="80" y="190" width="10" height="10" fill="cyan"/><rect x="90" y="190" width="10" height="10" fill="cyan"/><rect x="100" y="180" width="10" height="10" fill="green"/><rect x="110" y="180" width="10" height="10" fill="cyan"/><rect x="100" y="190" width="10" height="10" fill="cyan"/><rect x="110" y="190" width="10" height="10" fill="cyan"/><rect x="120" y="160" width="20" height="20" fill="green"/><rect x="140" y="160" width="10" height="10" fill="green"/><rect x="150" y="160" width="10" height="10" fill="cyan"/><rect x="140" y="170" width="10" height="10" fill="cyan"/><rect x="150" y="170" width="10" height="10" fill="cyan"/><rect x="120" y="180" width="20" height="20" fill="green"/><rect x="140" y="180" width="10" height="10" fill="green"/><rect x="150" y="180" width="10" height="10" fill="green"/><rect x="140" y="190" width="10" height="10" fill="green"/><rect x="150" y="190" width="10" height="10" fill="cyan"/><rect x="80" y="200" width="10" height="10" fill="cyan"/><rect x="90" y="200" width="10" height="10" fill="green"/><rect x="80" y="210" width="10" height="10" fill="cyan"/><rect x="90" y="210" width="10" height="10" fill="green"/><rect x="100" y="200" width="20" height="20" fill="cyan"/><rect x="80" y="220" width="10" height="10" fill="green"/><rect x="90" y="220" width="10" height="10" fill="cyan"/><rect x="80" y="230" width="10" height="10" fill="cyan"/><rect x="90" y="230" width="10" height="10" fill="cyan"/><rect x="100" y="220" width="20" height="20" fill="cyan"/><rect x="120" y="200" width="20" height="20" fill="green"/><rect x="140" y="200" width="20" height="20" fill="green"/><rect x="120" y="220" width="10" height="10" fill="cyan"/><rect x="130" y="220" width="10" height="10" fill="cyan"/><rect x="120" y="230" width="10" height="10" fill="cyan"/><rect x="130" y="230" width="10" height="10" fill="green"/><rect x="140" y="220" width="10" height="10" fill="cyan"/><rect x="150" y="220" width="10" height="10" fill="green"/><rect x="140" y="230" width="10" height="10" fill="cyan"/><rect x="150" y="230" width="10" height="10" fill="green"/><rect x="0" y="240" width="20" height="20" fill="cyan"/><rect x="20" y="240" width="20" height="20" fill="green"/><rect x="0" y="260" width="20" height="20" fill="cyan"/><rect x="20" y="260" width="20" height="20" fill="cyan"/><rect x="40" y="240" width="20" height="20" fill="green"/><rect x="60" y="240" width="20" height="20" fill="green"/><rect x="40" y="260" width="20" height="20" fill="green"/><rect x="60" y="260" width="10" height="10" fill="green"/><rect x="70" y="260" width="10" height="10" fill="green"/><rect x="60" y="270" width="10" height="10" fill="cyan"/><rect x="70" y="270" width="10" height="10" fill="green"/><rect x="0" y="280" width="40" height="40" fill="cyan"/><rect x="40" y="280" width="40" height="40" fill="cyan"/><rect x="80" y="240" width="40" height="40" fill="cyan"/><rect x="120" y="240" width="40" height="40" fill="cyan"/><rect x="80" y="280" width="40" height="40" fill="cyan"/><rect x="120" y="280" width="10" height="10" fill="cyan"/><rect x="130" y="280" width="10" height="10" fill="green"/><rect x="120" y="290" width="10" height="10" fill="cyan"/><rect x="130" y="290" width="10" height="10" fill="cyan"/><rect x="140" y="280" width="20" height="20" fill="cyan"/><rect x="120" y="300" width="20" height="20" fill="cyan"/><rect x="140" y="300" width="20" height="20" fill="cyan"/><rect x="160" y="160" width="40" height="40" fill="cyan"/><rect x="200" y="160" width="10" height="10" fill="cyan"/><rect x="210" y="160" width="10" height="10" fill="cyan"/><rect x="200" y="170" width="10" height="10" fill="green"/><rect x="210" y="170" width="10" height="10" fill="cyan"/><rect x="220" y="160" width="10" height="10" fill="cyan"/><rect x="230" y="160" width="10" height="10" fill="cyan"/><rect x="220" y="170" width="10" height="10" fill="green"/><rect x="230" y="170" width="10" height="10" fill="green"/><rect x="200" y="180" width="10" height="10" fill="cyan"/><rect x="210" y="180" width="10" height="10" fill="green"/><rect x="200" y="190" width="10" height="10" fill="green"/><rect x="210" y="190" width="10" height="10" fill="green"/><rect x="220" y="180" width="20" height="20" fill="cyan"/><rect x="160" y="200" width="20" height="20" fill="cyan"/><rect x="180" y="200" width="20" height="20" fill="cyan"/><rect x="160" y="220" width="10" height="10" fill="green"/><rect x="170" y="220" width="10" height="10" fill="cyan"/><rect x="160" y="230" width="10" height="10" fill="green"/><rect x="170" y="230" width="10" height="10" fill="green"/><rect x="180" y="220" width="10" height="10" fill="cyan"/><rect x="190" y="220" width="10" height="10" fill="cyan"/><rect x="180" y="230" width="10" height="10" fill="green"/><rect x="190" y="230" width="10" height="10" fill="cyan"/><rect x="200" y="200" width="20" height="20" fill="cyan"/><rect x="220" y="200" width="10" height="10" fill="cyan"/><rect x="230" y="200" width="10" height="10" fill="green"/><rect x="220" y="210" width="10" height="10" fill="cyan"/><rect x="230" y="210" width="10" height="10" fill="green"/><rect x="200" y="220" width="20" height="20" fill="cyan"/><rect x="220" y="220" width="20" height="20" fill="green"/><rect x="240" y="160" width="20" height="20" fill="green"/><rect x="260" y="160" width="20" height="20" fill="green"/><rect x="240" y="180" width="20" height="20" fill="green"/><rect x="260" y="180" width="10" height="10" fill="green"/><rect x="270" y="180" width="10" height="10" fill="green"/><rect x="260" y="190" width="10" height="10" fill="cyan"/><rect x="270" y="190" width="10" height="10" fill="green"/><rect x="280" y="160" width="40" height="40" fill="green"/><rect x="240" y="200" width="20" height="20" fill="green"/><rect x="260" y="200" width="20" height="20" fill="cyan"/><rect x="240" y="220" width="20" height="20" fill="green"/><rect x="260" y="220" width="10" height="10" fill="cyan"/><rect x="270" y="220" width="10" height="10" fill="green"/><rect x="260" y="230" width="10" height="10" fill="cyan"/><rect x="270" y="230" width="10" height="10" fill="cyan"/><rect x="280" y="200" width="10" height="10" fill="cyan"/><rect x="290" y="200" width="10" height="10" fill="green"/><rect x="280" y="210" width="10" height="10" fill="green"/><rect x="290" y="210" width="10" height="10" fill="green"/><rect x="300" y="200" width="20" height="20" fill="green"/><rect x="280" y="220" width="20" height="20" fill="green"/><rect x="300" y="220" width="20" height="20" fill="green"/><rect x="160" y="240" width="20" height="20" fill="cyan"/><rect x="180" y="240" width="10" height="10" fill="cyan"/><rect x="190" y="240" width="10" height="10" fill="green"/><rect x="180" y="250" width="10" height="10" fill="green"/><rect x="190" y="250" width="10" height="10" fill="green"/><rect x="160" y="260" width="20" height="20" fill="cyan"/><rect x="180" y="260" width="20" height="20" fill="cyan"/><rect x="200" y="240" width="20" height="20" fill="green"/><rect x="220" y="240" width="20" height="20" fill="green"/><rect x="200" y="260" width="20" height="20" fill="cyan"/><rect x="220" y="260" width="20" height="20" fill="cyan"/><rect x="160" y="280" width="40" height="40" fill="cyan"/><rect x="200" y="280" width="40" height="40" fill="cyan"/><rect x="240" y="240" width="20" height="20" fill="cyan"/><rect x="260" y="240" width="10" height="10" fill="cyan"/><rect x="270" y="240" width="10" height="10" fill="cyan"/><rect x="260" y="250" width="10" height="10" fill="cyan"/><rect x="270" y="250" width="10" height="10" fill="green"/><rect x="240" y="260" width="20" height="20" fill="cyan"/><rect x="260" y="260" width="20" height="20" fill="cyan"/><rect x="280" y="240" width="40" height="40" fill="green"/><rect x="240" y="280" width="40" height="40" fill="cyan"/><rect x="280" y="280" width="10" height="10" fill="cyan"/><rect x="290" y="280" width="10" height="10" fill="green"/><rect x="280" y="290" width="10" height="10" fill="green"/><rect x="290" y="290" width="10" height="10" fill="green"/><rect x="300" y="280" width="20" height="20" fill="green"/><rect x="280" y="300" width="20" height="20" fill="green"/><rect x="300" y="300" width="20" height="20" fill="green"/></svg>